<?xml version="1.0" standalone="no"?>
<!DOCTYPE svg PUBLIC "-//W3C//DTD SVG 1.1//EN" "http://www.w3.org/Graphics/SVG/1.1/DTD/svg11.dtd" >
<svg xmlns="http://www.w3.org/2000/svg" xmlns:xlink="http://www.w3.org/1999/xlink" version="1.1">
<metadata></metadata>
<defs>
<font id="kurierlight" horiz-adv-x="983" >
<font-face units-per-em="2048" ascent="1536" descent="-512" />
<missing-glyph horiz-adv-x="681" />
<glyph unicode="&#xfb01;" horiz-adv-x="1130" d="M20 856v66h144v252q0 72 18 133t58.5 102t97.5 41q106 0 215 -80v-45q-82 55 -162 55q-108 0 -108 -206v-252h557v-662q0 -207 100 -207q74 0 150 58v-48q-105 -79 -203 -79q-56 0 -95 42t-55 102t-16 132v596h-438v-856h-119v856h-144zM705 1239q0 31 22 53.5t53 22.5 t53.5 -22.5t22.5 -53.5t-22.5 -53.5t-53.5 -22.5t-53 22.5t-22 53.5z" />
<glyph unicode="&#xfb02;" horiz-adv-x="1130" d="M20 856v66h144v252q0 72 18 133t58.5 102t97.5 41q106 0 215 -80v-45q-82 55 -162 55q-108 0 -108 -206v-252h143v-66h-143v-856h-119v856h-144zM721 260v1174h119v-1174q0 -207 100 -207q74 0 150 58v-48q-105 -79 -203 -79q-56 0 -95 42t-55 102t-16 132z" />
<glyph unicode="&#xfb03;" horiz-adv-x="1687" d="M20 856v66h144v252q0 72 18 133t58.5 102t97.5 41q106 0 215 -80v-45q-82 55 -162 55q-108 0 -108 -206v-252h438v252q0 72 18 133t58.5 102t97.5 41q108 0 215 -80v-45q-82 55 -162 55q-108 0 -108 -206v-252h557v-662q0 -207 100 -207q74 0 150 58v-48 q-105 -79 -203 -79q-56 0 -95 42t-55 102t-16 132v596h-438v-856h-119v856h-438v-856h-119v856h-144zM1262 1239q0 31 22 53.5t53 22.5t53.5 -22.5t22.5 -53.5t-22.5 -53.5t-53.5 -22.5t-53 22.5t-22 53.5z" />
<glyph unicode="&#xfb04;" horiz-adv-x="1687" d="M20 856v66h144v252q0 72 18 133t58.5 102t97.5 41q106 0 215 -80v-45q-82 55 -162 55q-108 0 -108 -206v-252h438v252q0 72 18 133t58.5 102t97.5 41q108 0 215 -80v-45q-82 55 -162 55q-108 0 -108 -206v-252h143v-66h-143v-856h-119v856h-438v-856h-119v856h-144z M1278 260v1174h119v-1174q0 -207 100 -207q74 0 150 58v-48q-105 -79 -203 -79q-56 0 -95 42t-55 102t-16 132z" />
<glyph horiz-adv-x="0" />
<glyph unicode="&#xd;" horiz-adv-x="682" />
<glyph unicode=" "  horiz-adv-x="681" />
<glyph unicode="&#x09;" horiz-adv-x="681" />
<glyph unicode="&#xa0;" horiz-adv-x="681" />
<glyph unicode="!" horiz-adv-x="593" d="M221 76q0 31 22.5 53.5t53.5 22.5t53.5 -22.5t22.5 -53.5t-22.5 -53.5t-53.5 -22.5t-53.5 22.5t-22.5 53.5zM221 1434h152l-37 -1135h-76z" />
<glyph unicode="&#x22;" horiz-adv-x="391" d="M74 1077v357h69v-357h-69zM248 1077v357h69v-357h-69z" />
<glyph unicode="#" horiz-adv-x="1581" d="M74 434v78h385l104 393h-489v78h512l114 434h82l-116 -434h397l117 434h80l-117 -434h364v-78h-385l-104 -393h489v-78h-512l-114 -434h-82l116 434h-397l-117 -434h-79l116 434h-364zM539 512h397l106 393h-397z" />
<glyph unicode="$" horiz-adv-x="1290" d="M164 113v55q196 -119 446 -129v616q-69 16 -128 36.5t-116 51.5t-97 68.5t-64.5 88.5t-24.5 110q0 100 61 179t158 122t211 49v139h66v-139q214 -12 395 -139v-56q-171 120 -395 129v-510q90 -21 167.5 -55.5t142.5 -84t102.5 -118.5t37.5 -149q0 -110 -62 -201 t-164.5 -143t-223.5 -60v-209h-66v209q-229 10 -446 140zM291 1038q0 -43 19 -78t47 -58.5t73 -44t85 -32.5t95 -26v495q-133 -10 -226 -78t-93 -178zM676 41q142 9 241 94.5t99 212.5q0 207 -340 291v-598z" />
<glyph unicode="%" horiz-adv-x="1228" d="M74 1126q0 324 270 324t270 -324q0 -323 -270 -323t-270 323zM176 1126q0 -274 168 -274q170 0 170 274q0 275 -170 275q-168 0 -168 -275zM260 297v94l709 746v-95zM614 307q0 324 271 324q270 0 270 -324q0 -323 -270 -323q-271 0 -271 323zM717 307q0 -274 168 -274 q170 0 170 274q0 275 -170 275q-168 0 -168 -275z" />
<glyph unicode="&#x26;" horiz-adv-x="1216" d="M74 430q0 175 75 269.5t228 127.5q-97 41 -155 112t-58 165q0 100 59.5 180.5t155 123t205.5 42.5q145 0 280 -66v-65q-121 65 -262 65q-130 0 -224.5 -80.5t-94.5 -199.5q0 -113 97 -184.5t228 -71.5q118 0 256 16v-65q-133 -17 -256 -17q-204 0 -301.5 -82.5 t-97.5 -269.5q0 -159 115.5 -270t277.5 -111q139 0 262 66v-66q-151 -65 -317 -65q-127 0 -235.5 58.5t-173 161.5t-64.5 226zM918 0v872q125 22 225 50v-66q-20 -6 -59 -15.5t-48 -11.5v-829h-118z" />
<glyph unicode="'" horiz-adv-x="217" d="M74 1077v357h69v-357h-69z" />
<glyph unicode="(" horiz-adv-x="589" d="M164 481q0 280 58.5 496t199.5 457h65q-112 -249 -158 -464t-46 -489q0 -273 46 -488t158 -464h-65q-141 240 -199.5 456t-58.5 496z" />
<glyph unicode=")" horiz-adv-x="589" d="M102 -471q112 249 158.5 464t46.5 488q0 274 -46.5 489t-158.5 464h66q141 -242 199.5 -457.5t58.5 -495.5q0 -279 -58.5 -495t-199.5 -457h-66z" />
<glyph unicode="*" horiz-adv-x="622" d="M16 1065q100 38 252 82l37 -23q-94 -42 -186 -118zM66 1257v119q103 -85 196 -176v-45q-95 67 -196 102zM258 1432l102 59q-21 -134 -55 -260l-37 -23q9 109 -10 224zM262 864q19 119 55 260l37 23q-9 -112 11 -223zM317 1231q92 42 187 119l102 -60q-116 -43 -252 -82z M360 1155v45q98 -68 197 -102v-119q-82 66 -197 176z" />
<glyph unicode="+" horiz-adv-x="1593" d="M154 473v78h604v604h78v-604h604v-78h-604v-604h-78v604h-604z" />
<glyph unicode="," horiz-adv-x="372" d="M86 -236q57 183 57 388h119q0 -207 -110 -388h-66z" />
<glyph unicode="-" horiz-adv-x="829" d="M74 434v78h682v-78h-682z" />
<glyph unicode="." horiz-adv-x="372" d="M111 76q0 31 22 53.5t53 22.5t53.5 -22.5t22.5 -53.5t-22.5 -53.5t-53.5 -22.5t-53 22.5t-22 53.5z" />
<glyph unicode="/" horiz-adv-x="589" d="M74 -236l362 1670h80l-362 -1670h-80z" />
<glyph unicode="0" d="M61 709q0 725 431 725q430 0 430 -725t-430 -725q-431 0 -431 725zM197 709q0 -660 295 -660q294 0 294 660q0 659 -294 659q-295 0 -295 -659z" />
<glyph unicode="1" d="M135 1026v66q228 130 404 325h88v-1417h-119v1270q-167 -146 -373 -244z" />
<glyph unicode="2" d="M74 0v72l434 495q58 67 100.5 123t83 125.5t61.5 143t21 147.5q0 109 -83.5 183.5t-198.5 74.5q-226 0 -402 -143v65q178 148 402 148q105 0 196 -40t148 -116.5t57 -171.5q0 -67 -19.5 -134t-53 -123.5t-76.5 -114.5t-89.5 -108.5t-93.5 -105.5l-381 -426h729v-94h-835z " />
<glyph unicode="3" d="M74 80v65q200 -96 418 -96q116 0 199 100t83 240q0 103 -24 169.5t-78 104.5t-129.5 53t-190.5 15v57q106 0 175 13.5t119.5 48t72.5 95t22 153.5q0 121 -75.5 195.5t-198.5 74.5q-192 0 -361 -96v65q168 97 361 97q176 0 284.5 -92.5t108.5 -243.5q0 -118 -68.5 -202 t-187.5 -116q133 -36 219 -144.5t86 -246.5q0 -167 -122.5 -286t-294.5 -119q-222 0 -418 96z" />
<glyph unicode="4" d="M74 496v69l569 852h119v-852h147v-69h-147v-496h-119v1298l-491 -733h438v-69h-516z" />
<glyph unicode="5" d="M74 94v66q196 -111 418 -111q127 0 204.5 113t77.5 299t-77 298.5t-205 112.5q-98 0 -184.5 -43.5t-143.5 -121.5l-66 2l25 708h754v-94h-693l-16 -522q63 65 147.5 101t176.5 36q187 0 302 -131t115 -346t-115 -346t-302 -131q-221 0 -418 110z" />
<glyph unicode="6" d="M74 709q0 110 17 213.5t54 197t89.5 163t129 110.5t168.5 41q149 0 279 -76v-66q-130 76 -279 76q-323 0 -323 -659q0 -346 67 -503t216 -157q127 0 204.5 113t77.5 299q0 79 -13.5 149.5t-41 130.5t-75.5 95.5t-112 35.5q-84 0 -157 -44t-113 -119v65q40 75 113 119.5 t157 44.5q377 0 377 -477q0 -215 -115 -346t-302 -131q-220 0 -319 172t-99 553z" />
<glyph unicode="7" d="M74 1323v94h835v-51l-657 -1366h-131l637 1323h-684z" />
<glyph unicode="8" d="M74 397q0 147 66.5 247t187.5 140q-106 36 -164 117t-58 197q0 157 103 246.5t283 89.5q179 0 282 -89.5t103 -246.5q0 -116 -58 -197t-164 -117q121 -40 187.5 -140t66.5 -247q0 -192 -111.5 -302.5t-305.5 -110.5t-306 110.5t-112 302.5zM209 397q0 -162 75.5 -255 t207.5 -93t207 93t75 255q0 140 -70 244t-186 104v66q103 0 170.5 85t67.5 202q0 126 -71 198t-193 72q-123 0 -194 -72t-71 -198q0 -117 67.5 -202t170.5 -85v-66q-116 0 -186 -104t-70 -244z" />
<glyph unicode="9" d="M74 956q0 215 115 346.5t303 131.5q219 0 318 -172t99 -553q0 -110 -17 -214t-54 -197t-89.5 -162.5t-129 -110.5t-168.5 -41q-150 0 -279 75v66q130 -76 279 -76q323 0 323 660q0 346 -67 502.5t-215 156.5q-128 0 -205.5 -113t-77.5 -299q0 -79 13.5 -149.5t41 -130.5 t75.5 -95.5t112 -35.5q84 0 157 44t113 120v-66q-40 -75 -113 -119.5t-157 -44.5q-377 0 -377 477z" />
<glyph unicode=":" horiz-adv-x="479" d="M164 76q0 31 22.5 53.5t53.5 22.5t53 -22.5t22 -53.5t-22 -53.5t-53 -22.5t-53.5 22.5t-22.5 53.5zM164 846q0 31 22.5 53.5t53.5 22.5t53 -22.5t22 -53.5t-22 -53.5t-53 -22.5t-53.5 22.5t-22.5 53.5z" />
<glyph unicode=";" horiz-adv-x="479" d="M123 -236q57 183 57 388h119q0 -208 -111 -388h-65zM164 846q0 31 22.5 53.5t53.5 22.5t53 -22.5t22 -53.5t-22 -53.5t-53 -22.5t-53.5 22.5t-22.5 53.5z" />
<glyph unicode="&#x3c;" horiz-adv-x="1593" d="M186 477v70l1203 645v-90l-1102 -590l1102 -594v-90z" />
<glyph unicode="=" horiz-adv-x="1593" d="M154 317v78h1286v-78h-1286zM154 629v78h1286v-78h-1286z" />
<glyph unicode="&#x3e;" horiz-adv-x="1593" d="M186 -82l1102 590l-1102 594v90l1203 -649v-70l-1203 -645v90z" />
<glyph unicode="?" horiz-adv-x="790" d="M74 1190v65q52 83 137.5 131t183.5 48q132 0 227 -82.5t95 -204.5q0 -103 -16 -169.5t-44.5 -114t-99.5 -140.5t-99.5 -140.5t-44.5 -114t-16 -169.5h-65v43t0.5 43t2 43.5t4 43.5t7 43t10.5 42q15 45 39 87t66 101.5t55 79.5q59 87 70.5 140.5t11.5 181.5 q0 90 -59 155.5t-144 65.5q-98 0 -183.5 -47.5t-137.5 -130.5zM289 76q0 31 22 53.5t54 22.5q31 0 53 -22.5t22 -53.5t-22 -53.5t-53 -22.5q-32 0 -54 22.5t-22 53.5z" />
<glyph unicode="@" horiz-adv-x="1832" d="M82 453q0 170 66 324.5t178 266t267 178t325 66.5q169 0 323.5 -66.5t266 -178t177.5 -266.5t66 -324q0 -110 -25.5 -201.5t-67.5 -151t-95.5 -101.5t-109.5 -58.5t-109.5 -15t-95.5 22t-67.5 59t-25.5 89.5v795h113v-795q0 -56 31 -85.5t77.5 -29t100.5 32t100.5 87 t77.5 148.5t31 204q0 157 -61 299.5t-164 245.5t-245 164t-298 61q-157 0 -299.5 -61t-246 -164t-164.5 -245.5t-61 -299.5q0 -156 61 -298.5t164 -245t246 -163.5t300 -61q188 0 352 86l30 -60q-178 -92 -382 -92q-171 0 -325.5 66t-266.5 177.5t-178 266t-66 324.5z M496 453q0 204 93.5 329t270.5 125q126 0 244 -47v-61q-122 45 -240 45q-80 0 -136 -58.5t-79.5 -144.5t-23.5 -188q0 -392 239 -392q119 0 240 97v-62q-138 -96 -273 -96q-114 0 -190.5 61t-110.5 160.5t-34 231.5z" />
<glyph unicode="A" horiz-adv-x="1220" d="M20 0l529 1434h131l520 -1434h-131l-182 502h-606l-187 -502h-74zM305 571h557l-276 760z" />
<glyph unicode="B" horiz-adv-x="1359" d="M205 0v1434h123v-1434h-123zM381 0v70q148 -17 289 -17q108 0 202.5 39.5t153.5 116t59 172.5q0 101 -64 179t-165 117.5t-217 39.5h-258v53h172q126 0 234 35t179.5 110.5t71.5 178.5q0 127 -109.5 206.5t-258.5 79.5q-135 0 -289 -16v70q154 16 289 16 q144 0 251.5 -35.5t173.5 -117t66 -203.5q0 -134 -75 -216t-209 -116q169 -34 264.5 -128t95.5 -253q0 -104 -43.5 -182t-122 -124t-179 -68.5t-222.5 -22.5q-135 0 -289 16z" />
<glyph unicode="C" horiz-adv-x="1265" d="M123 717q0 217 68.5 380.5t208.5 258t337 94.5q139 0 262.5 -62.5t204.5 -173.5v-81q-78 116 -202 181.5t-265 65.5q-98 0 -176 -33.5t-131.5 -92.5t-88.5 -143t-51 -181.5t-16 -212.5t16 -212.5t51 -182t88.5 -143.5t131.5 -92.5t176 -33.5q233 0 439 117v-70 q-207 -116 -439 -116q-197 0 -337 94.5t-208.5 258t-68.5 380.5z" />
<glyph unicode="D" horiz-adv-x="1482" d="M205 0v1434h123v-1434h-123zM381 0v70q178 -17 344 -17q111 0 203.5 56t153 149.5t93.5 212t33 246.5t-33 246.5t-93.5 211.5t-153 149t-203.5 56q-160 0 -344 -16v70q184 16 344 16q202 0 346.5 -93.5t216.5 -257.5t72 -382t-72 -382t-216.5 -257.5t-346.5 -93.5 q-160 0 -344 16z" />
<glyph unicode="E" horiz-adv-x="1310" d="M205 0v1434h940v-70h-817v-612h663v-70h-663v-612h860v-70h-983z" />
<glyph unicode="F" horiz-adv-x="1247" d="M205 0v1434h940v-70h-817v-612h663v-70h-663v-682h-123z" />
<glyph unicode="G" horiz-adv-x="1441" d="M123 717q0 218 72 382t216.5 257.5t346.5 93.5q137 0 264.5 -51.5t226.5 -145.5v-69q-98 94 -225.5 145t-265.5 51q-124 0 -218.5 -50.5t-151.5 -141t-85.5 -209t-28.5 -262.5t28.5 -262.5t85.5 -209.5t151.5 -141.5t218.5 -50.5q193 0 344 117v-70q-152 -116 -344 -116 q-202 0 -346.5 93.5t-216.5 257.5t-72 382zM1155 0v602h123v-602h-123z" />
<glyph unicode="H" horiz-adv-x="1490" d="M205 0v1434h123v-682h835v682h123v-1434h-123v682h-835v-682h-123z" />
<glyph unicode="I" horiz-adv-x="532" d="M205 0v1434h123v-1434h-123z" />
<glyph unicode="J" horiz-adv-x="667" d="M20 -33q37 -23 94 -40t99 -17q62 0 94.5 61t32.5 146v1317h123v-1317q0 -113 -54 -195t-145 -82q-134 0 -244 80v47z" />
<glyph unicode="K" horiz-adv-x="1380" d="M205 0v1434h123v-1434h-123zM369 774l841 660h115l-809 -631l844 -803h-178z" />
<glyph unicode="L" horiz-adv-x="1032" d="M205 0v1434h123v-1364h663v-70h-786z" />
<glyph unicode="M" horiz-adv-x="1769" d="M123 0l72 1434h98l592 -1270l592 1270h98l72 -1434h-123l-62 1237l-577 -1237h-60l-571 1227l-61 -1227h-70z" />
<glyph unicode="N" horiz-adv-x="1564" d="M205 0v1434h88l997 -1258v1258h70v-1434h-88l-998 1257v-1257h-69z" />
<glyph unicode="O" horiz-adv-x="1474" d="M123 717q0 217 68.5 380.5t208.5 258t337 94.5t337.5 -94.5t209 -258t68.5 -380.5t-68.5 -380.5t-209 -258t-337.5 -94.5t-337 94.5t-208.5 258t-68.5 380.5zM274 717q0 -115 16 -212.5t51 -182t88.5 -143.5t131.5 -92.5t176 -33.5t176 33.5t131.5 92.5t88.5 143.5 t51 182t16 212.5t-16 212.5t-51 181.5t-88.5 143t-131.5 92.5t-176 33.5t-176 -33.5t-131.5 -92.5t-88.5 -143t-51 -181.5t-16 -212.5z" />
<glyph unicode="P" horiz-adv-x="1359" d="M205 0v1434h123v-1434h-123zM381 682v70q159 -29 317 -29q102 0 190 41t142.5 117.5t54.5 171.5q0 93 -54.5 169t-142.5 117t-190 41q-151 0 -317 -16v70q166 16 317 16q117 0 213.5 -23.5t170 -71t114.5 -124.5t41 -178q0 -102 -41 -180t-114.5 -125.5t-170 -71 t-213.5 -23.5q-149 0 -317 29z" />
<glyph unicode="Q" horiz-adv-x="1474" d="M123 717q0 217 68.5 380.5t208.5 258t337 94.5t337.5 -94.5t209 -258t68.5 -380.5q0 -198 -57.5 -352t-174.5 -253t-284 -122q3 -137 68 -194.5t214 -57.5q81 0 148 37v-45q-70 -29 -107.5 -36t-114.5 -7q-124 0 -213.5 86.5t-93.5 210.5q-197 0 -337 94.5t-208.5 258 t-68.5 380.5zM274 717q0 -115 16 -212.5t51 -182t88.5 -143.5t131.5 -92.5t176 -33.5t176 33.5t131.5 92.5t88.5 143.5t51 182t16 212.5t-16 212.5t-51 181.5t-88.5 143t-131.5 92.5t-176 33.5t-176 -33.5t-131.5 -92.5t-88.5 -143t-51 -181.5t-16 -212.5z" />
<glyph unicode="R" horiz-adv-x="1327" d="M205 0v1434h123v-1434h-123zM381 653v70h317q102 0 190 41t142.5 117.5t54.5 171.5q0 93 -54.5 169t-142.5 117t-190 41q-151 0 -317 -16v70q166 16 317 16q117 0 213.5 -23.5t170 -71t114.5 -124.5t41 -178q0 -169 -107 -266.5t-290 -122.5l446 -664h-147l-398 588 q-15 23 -52 37.5t-97.5 20t-100.5 6.5t-110 1z" />
<glyph unicode="S" horiz-adv-x="1280" d="M123 121v59q231 -139 516 -139q162 0 280.5 94.5t118.5 239.5q0 233 -415 325q-76 17 -142 38.5t-130.5 55t-110 74t-73.5 96.5t-28 121q0 113 72 200.5t185 132t243 44.5q245 0 459 -149v-60q-196 140 -459 140q-99 0 -184.5 -31.5t-141 -96t-55.5 -149.5 q0 -36 13 -67.5t32.5 -54.5t53 -43.5t63.5 -34.5t75.5 -27.5t78 -21.5t81.5 -19q79 -17 150 -43.5t136 -66t112.5 -87.5t75.5 -111t28 -134q0 -124 -73 -225t-191 -155.5t-254 -54.5q-267 0 -516 150z" />
<glyph unicode="T" horiz-adv-x="1163" d="M41 1364v70h1081v-70h-479v-1364h-123v1364h-479z" />
<glyph unicode="U" horiz-adv-x="1400" d="M184 401v1033h123v-1004q0 -164 124 -276.5t296 -112.5t296 112.5t124 276.5v1004h70v-1033q0 -123 -73 -223t-190.5 -153.5t-253.5 -53.5q-135 0 -252.5 53.5t-190.5 153.5t-73 223z" />
<glyph unicode="V" horiz-adv-x="1241" d="M41 1434h131l487 -1272l488 1272h74l-549 -1434h-82z" />
<glyph unicode="W" horiz-adv-x="1820" d="M41 1434h129l371 -1235l370 1235h74l371 -1235l370 1235h74l-430 -1434h-82l-368 1221l-367 -1221h-82z" />
<glyph unicode="X" horiz-adv-x="1277" d="M61 0l517 731l-474 703h148l407 -607l428 607h87l-472 -668l515 -766h-148l-451 668l-471 -668h-86z" />
<glyph unicode="Y" horiz-adv-x="1142" d="M41 1434h139l414 -764l448 764h80l-479 -818v-616h-123v573z" />
<glyph unicode="Z" horiz-adv-x="1155" d="M61 0v66l861 1298h-832v70h975v-76l-854 -1288h883v-70h-1033z" />
<glyph unicode="[" horiz-adv-x="389" d="M74 -512v2048h241v-66h-172v-1916h172v-66h-241z" />
<glyph unicode="\" horiz-adv-x="1024" d="M35 1536h86l868 -2048h-86z" />
<glyph unicode="]" horiz-adv-x="389" d="M74 -446h172v1916h-172v66h241v-2048h-241v66z" />
<glyph unicode="^" horiz-adv-x="1024" d="M45 717l422 717h90l422 -717h-90l-377 641l-377 -641h-90z" />
<glyph unicode="_" horiz-adv-x="1024" d="M0 -158h1024v-78h-1024v78z" />
<glyph unicode="`" d="M262 1434h135q0 -109 41.5 -210t118.5 -180h-65q-55 55 -85 88.5t-69.5 86.5t-57.5 106t-18 109z" />
<glyph unicode="a" horiz-adv-x="1067" d="M92 285q0 148 105.5 225.5t277.5 77.5q128 0 256 -47v-66q-121 47 -252 47q-104 0 -178 -68.5t-74 -168.5q0 -110 68.5 -173t183.5 -63q123 0 252 101v-66q-146 -100 -287 -100q-159 0 -255.5 79t-96.5 222zM207 791v47q195 100 383 100q135 0 224 -109.5t89 -259.5v-569 h-119v569q0 121 -64.5 210t-166.5 89q-176 0 -346 -77z" />
<glyph unicode="b" horiz-adv-x="1087" d="M164 0v1434h119v-1434h-119zM336 43v66q130 -60 252 -60q85 0 143.5 62t83.5 152.5t25 197.5q0 411 -252 411q-122 0 -252 -100v66q146 100 287 100q119 0 199.5 -64t116.5 -169t36 -244q0 -216 -98.5 -346.5t-284.5 -130.5q-128 0 -256 59z" />
<glyph unicode="c" horiz-adv-x="901" d="M113 461q0 215 121.5 346t320.5 131q169 0 295 -111v-65q-67 60 -135.5 85t-159.5 25q-138 0 -222.5 -112.5t-84.5 -298.5t84.5 -299t222.5 -113q91 0 151 23t128 84v-66q-118 -106 -279 -106q-199 0 -320.5 131t-121.5 346z" />
<glyph unicode="d" horiz-adv-x="1087" d="M113 461q0 215 98.5 346t284.5 131q132 0 256 -47v-66q-121 47 -252 47q-64 0 -114 -35t-79 -94.5t-44 -131t-15 -150.5q0 -412 252 -412q123 0 252 101v-66q-146 -100 -287 -100q-176 0 -264 131t-88 346zM805 0v1434h119v-1434h-119z" />
<glyph unicode="e" horiz-adv-x="1026" d="M113 461q0 215 111 346t294 131t294.5 -131t111.5 -346v-17h-623v66h487q0 147 -74 254.5t-196 107.5t-196 -112.5t-74 -298.5q0 -106 29 -197t92 -151t149 -60q88 0 155.5 22.5t139.5 76.5v-66q-126 -102 -295 -102q-183 0 -294 131t-111 346z" />
<glyph unicode="f" horiz-adv-x="487" d="M41 856v66h143v252q0 112 45.5 194t128.5 82q108 0 215 -80v-45q-82 55 -161 55q-41 0 -66.5 -32t-34 -75t-8.5 -99v-252h143v-66h-143v-856h-119v856h-143z" />
<glyph unicode="g" horiz-adv-x="1087" d="M113 461q0 215 98.5 346t284.5 131q132 0 256 -47v-66q-121 47 -252 47q-64 0 -114 -35t-79 -94.5t-44 -131t-15 -150.5q0 -412 252 -412q123 0 252 101v-66q-146 -100 -287 -100q-176 0 -264 131t-88 346zM203 -367q185 -51 360 -51q106 0 174 89t68 210v1041h119v-1041 q0 -150 -93.5 -259t-232.5 -109q-201 0 -395 75v45z" />
<glyph unicode="h" horiz-adv-x="1079" d="M164 0v1434h119v-1434h-119zM336 791v47q161 100 323 100q112 0 189.5 -81t77.5 -195v-662h-119v662q0 84 -54.5 145t-134.5 61q-144 0 -282 -77z" />
<glyph unicode="i" horiz-adv-x="563" d="M137 1239q0 31 22.5 53.5t53.5 22.5t53.5 -22.5t22.5 -53.5t-22.5 -53.5t-53.5 -22.5t-53.5 22.5t-22.5 53.5zM154 260v662h118v-662q0 -207 101 -207q73 0 149 58v-48q-104 -79 -203 -79q-82 0 -123.5 81.5t-41.5 194.5z" />
<glyph unicode="j" horiz-adv-x="446" d="M-119 -367q87 -51 170 -51q59 0 86 60t27 147v1133h119v-1133q0 -71 -19.5 -132.5t-61.5 -102.5t-100 -41q-111 0 -221 75v45zM147 1239q0 31 22.5 53.5t53.5 22.5t53.5 -22.5t22.5 -53.5t-22.5 -53.5t-53.5 -22.5t-53.5 22.5t-22.5 53.5z" />
<glyph unicode="k" horiz-adv-x="995" d="M164 0v1434h119v-1434h-119zM305 516l557 406h101l-527 -385l539 -537h-152z" />
<glyph unicode="l" horiz-adv-x="573" d="M164 260v1174h119v-1174q0 -207 100 -207q73 0 149 58v-48q-104 -79 -202 -79q-56 0 -95 42t-55 102t-16 132z" />
<glyph unicode="m" horiz-adv-x="1517" d="M164 0v922h119v-922h-119zM336 791v47q132 100 268 100q96 0 157.5 -82t61.5 -194v-662h-118v662q0 83 -40.5 144.5t-107.5 61.5q-115 0 -221 -77zM836 758v47q59 63 140 98t169 35q96 0 157.5 -82t61.5 -194v-662h-119v662q0 83 -40 144.5t-107 61.5q-152 0 -262 -110z " />
<glyph unicode="n" horiz-adv-x="1079" d="M164 0v922h119v-922h-119zM336 791v47q161 100 323 100q112 0 189.5 -81t77.5 -195v-662h-119v662q0 84 -54.5 145t-134.5 61q-144 0 -282 -77z" />
<glyph unicode="o" horiz-adv-x="1036" d="M113 461q0 232 103.5 354.5t301.5 122.5t302 -122.5t104 -354.5t-104 -354.5t-302 -122.5t-301.5 122.5t-103.5 354.5zM248 461q0 -201 69 -306.5t201 -105.5t201 105.5t69 306.5t-69 306t-201 105t-201 -105t-69 -306z" />
<glyph unicode="p" horiz-adv-x="1077" d="M154 -471v1393h118v-1393h-118zM326 31v65q125 -47 252 -47q64 0 114 35.5t79 95t43.5 131t14.5 150.5q0 411 -251 411q-124 0 -252 -100v66q146 100 286 100q176 0 264.5 -131.5t88.5 -345.5q0 -216 -98.5 -346.5t-284.5 -130.5q-132 0 -256 47z" />
<glyph unicode="q" horiz-adv-x="1087" d="M113 461q0 215 98.5 346t284.5 131q132 0 256 -47v-66q-121 47 -252 47q-64 0 -114 -35t-79 -94.5t-44 -131t-15 -150.5q0 -412 252 -412q123 0 252 101v-66q-146 -100 -287 -100q-176 0 -264 131t-88 346zM805 -471v1393h119v-1393h-119z" />
<glyph unicode="r" horiz-adv-x="745" d="M164 0v922h119v-922h-119zM336 756v65q145 111 295 111q43 0 74 -10v-95q-56 15 -123 15q-121 0 -246 -86z" />
<glyph unicode="s" horiz-adv-x="901" d="M72 68v65q174 -84 368 -84q103 0 178.5 46.5t75.5 127.5q0 83 -75 133t-187 70q-348 59 -348 250q0 119 106 190.5t250 71.5q172 0 322 -84v-66q-147 84 -322 84q-98 0 -169.5 -43t-71.5 -120q0 -134 250 -177q71 -12 132 -33.5t114 -54t83.5 -81.5t30.5 -109 q0 -82 -53.5 -144.5t-136.5 -94t-179 -31.5q-197 0 -368 84z" />
<glyph unicode="t" horiz-adv-x="651" d="M61 856v57q48 0 84.5 27t57.5 73.5t31 100.5t10 115h71v-307h275v-66h-275v-596q0 -87 26 -147t85 -60q83 0 164 58v-48q-108 -79 -217 -79q-85 0 -130.5 81.5t-45.5 194.5v596h-136z" />
<glyph unicode="u" horiz-adv-x="1079" d="M154 260v662h118v-662q0 -84 54.5 -145.5t134.5 -61.5q142 0 282 78v-47q-161 -100 -323 -100q-112 0 -189 81t-77 195zM797 0v922h118v-922h-118z" />
<glyph unicode="v" horiz-adv-x="851" d="M20 922h115l307 -809l320 809h69l-362 -922h-98z" />
<glyph unicode="w" horiz-adv-x="1499" d="M41 922h113l280 -801l295 801h84l281 -801l295 801h69l-340 -922h-96l-274 782l-287 -782h-99z" />
<glyph unicode="x" horiz-adv-x="892" d="M41 0l352 455l-336 467h131l277 -383l297 383h82l-340 -439l348 -483h-131l-289 399l-309 -399h-82z" />
<glyph unicode="y" horiz-adv-x="1079" d="M154 260v662h118v-662q0 -84 54.5 -145.5t134.5 -61.5q142 0 282 78v-47q-161 -100 -323 -100q-112 0 -189 81t-77 195zM244 -367q169 -51 331 -51q101 0 161.5 89t60.5 210v1041h118v-1041q0 -149 -85.5 -258.5t-217.5 -109.5q-190 0 -368 75v45z" />
<glyph unicode="z" horiz-adv-x="884" d="M61 0v57l621 799h-604v66h745v-58l-620 -798h620v-66h-762z" />
<glyph unicode="{" horiz-adv-x="1024" d="M205 477v70q248 0 248 121v682q0 54 31.5 93t86.5 59t115.5 29t132.5 9v-70q-248 0 -248 -120v-682q0 -52 -36 -93.5t-91 -62.5q55 -21 91 -62.5t36 -93.5v-682q0 -120 248 -120v-70q-72 0 -132.5 9t-115.5 29t-86.5 59t-31.5 93v682q0 121 -248 121z" />
<glyph unicode="|" horiz-adv-x="569" d="M246 -512v2048h78v-2048h-78z" />
<glyph unicode="}" horiz-adv-x="1024" d="M205 -446q248 0 248 120v682q0 52 36 93.5t91 62.5q-55 21 -91 62.5t-36 93.5v682q0 120 -248 120v70q72 0 132.5 -9t115.5 -29t86.5 -59t31.5 -93v-682q0 -121 248 -121v-70q-248 0 -248 -121v-682q0 -54 -31.5 -93t-86.5 -59t-115.5 -29t-132.5 -9v70z" />
<glyph unicode="~" horiz-adv-x="1400" d="M283 373q38 46 65 76t66.5 67.5t76.5 56.5t70 19q38 0 78 -23t68.5 -50t67.5 -50t77 -23q43 0 85.5 24.5t67.5 50.5t62 71l51 -43q-40 -48 -66 -76.5t-66 -67t-76.5 -57t-69.5 -18.5q-32 0 -63 15t-57 36t-52 42.5t-57 36.5t-62 15q-43 0 -85.5 -24.5t-67.5 -50 t-62 -70.5z" />
<glyph unicode="&#xa1;" horiz-adv-x="593" d="M221 -360l39 1134h76l37 -1134h-152zM221 997q0 31 22.5 53.5t53.5 22.5t53.5 -22.5t22.5 -53.5t-22.5 -53t-53.5 -22t-53.5 22t-22.5 53z" />
<glyph unicode="&#xa2;" horiz-adv-x="903" d="M113 461q0 215 111 346t294 131q109 0 211 -41l49 84h74l-64 -113q23 -13 62 -41v-65q-54 39 -90 57l-404 -700q70 -70 162 -70q100 0 168 23t148 84v-66q-138 -106 -316 -106q-113 0 -207 55l-57 -98h-74l78 139q-145 129 -145 381zM248 461q0 -174 65 -285l385 670 q-77 26 -180 26q-122 0 -196 -112.5t-74 -298.5z" />
<glyph unicode="&#xa3;" horiz-adv-x="1187" d="M102 0v70q106 54 179 148t102 210q27 109 -16 274h-265v66h244q-10 33 -20 69.5t-18.5 69.5t-13.5 70.5t-5 71.5q0 161 118.5 273t284.5 112q103 0 192.5 -38.5t145 -112t55.5 -165.5h-118q0 105 -81 175.5t-194 70.5q-121 0 -202.5 -92.5t-81.5 -222.5q0 -85 34 -281 h250v-66h-239q26 -179 -2 -290q-39 -165 -172 -293h806v-119h-983z" />
<glyph unicode="&#xa4;" horiz-adv-x="1593" d="M315 84l119 121q-112 128 -112 307t112 307l-119 121l54 53l120 -119q131 115 308 115q176 0 307 -115l121 119l53 -53l-119 -121q115 -131 115 -307t-115 -307l119 -121l-53 -53l-121 119q-129 -113 -307 -113q-179 0 -308 113l-120 -119zM399 512q0 -164 117 -280.5 t281 -116.5t281.5 116.5t117.5 280.5t-117.5 281.5t-281.5 117.5t-281 -117.5t-117 -281.5z" />
<glyph unicode="&#xa5;" horiz-adv-x="1142" d="M41 1434h139l414 -764l448 764h80l-479 -818v-12h320v-65h-320v-148h320v-65h-320v-326h-123v326h-319v65h319v148h-319v65h303z" />
<glyph unicode="&#xa6;" horiz-adv-x="299" d="M111 0v512h77v-512h-77zM111 922v512h77v-512h-77z" />
<glyph unicode="&#xa7;" horiz-adv-x="1093" d="M164 492q0 150 147 301q13 -11 41 -31q-69 -87 -69 -270q0 -26 10 -50.5t23.5 -43.5t39.5 -40t45.5 -34t56 -32t55.5 -28t58 -26q138 -61 226 -153.5t88 -213.5q0 -141 -98.5 -241.5t-239.5 -100.5q-163 0 -295 102v62q126 -99 295 -99q96 0 157.5 82.5t61.5 194.5 q0 45 -20.5 84.5t-58 71t-76 53.5t-89.5 45q-60 27 -105 50.5t-95.5 58.5t-82.5 71.5t-53.5 85t-21.5 101.5zM209 1092q0 142 98.5 242t239.5 100q164 0 295 -103v-61q-127 98 -295 98q-96 0 -157.5 -82t-61.5 -194q0 -45 20.5 -84.5t58 -71t75.5 -53.5t89 -45 q60 -27 105 -51t95.5 -59t83 -71t54 -84.5t21.5 -101.5q0 -149 -148 -301q-9 8 -41 31q70 85 70 270q0 30 -11 57.5t-36 51.5t-47 42t-63 39.5t-63.5 32t-68.5 31.5q-138 60 -225.5 153t-87.5 214z" />
<glyph unicode="&#xa8;" d="M248 1237q0 29 20 49.5t49 20.5q28 0 48 -20.5t20 -49.5q0 -28 -20 -48t-48 -20t-48.5 20t-20.5 48zM596 1237q0 29 20.5 49.5t49.5 20.5q27 0 47 -20.5t20 -49.5q0 -28 -20 -48t-47 -20q-29 0 -49.5 20t-20.5 48z" />
<glyph unicode="&#xa9;" horiz-adv-x="1679" d="M123 717q0 146 57 278.5t153 228.5t228.5 153t278.5 57q145 0 278 -57t228.5 -153t152.5 -228.5t57 -278.5t-57 -278.5t-152.5 -228.5t-228.5 -153t-278 -57q-146 0 -278.5 57t-228.5 153t-153 228.5t-57 278.5zM188 717q0 -178 87 -327.5t237 -236.5t328 -87 q177 0 327 87t237 236.5t87 327.5q0 133 -51.5 253.5t-138.5 207.5t-207.5 138.5t-253.5 51.5t-254 -51.5t-208 -138.5t-138.5 -207.5t-51.5 -253.5zM483 717q0 182 87.5 292.5t250.5 110.5q76 0 144 -35t112 -96v-43q-43 63 -111 99t-145 36q-131 0 -193.5 -99.5 t-62.5 -264.5t62.5 -265t193.5 -100q128 0 240 64v-39q-112 -64 -240 -64q-163 0 -250.5 110.5t-87.5 293.5z" />
<glyph unicode="&#xaa;" horiz-adv-x="731" d="M74 797v51h583v-51h-583zM74 1059q0 89 75.5 134.5t200.5 45.5q93 0 185 -29v-39q-92 29 -183 29q-74 0 -127 -41t-53 -100q0 -67 49 -104t131 -37q92 0 183 59v-39q-102 -61 -207 -61q-115 0 -184.5 47.5t-69.5 134.5zM156 1362v29q141 59 276 59q97 0 161 -65.5 t64 -155.5v-342h-86v342q0 72 -45.5 126t-119.5 54q-120 0 -250 -47z" />
<glyph unicode="&#xab;" horiz-adv-x="913" d="M74 461l256 461h119l-218 -461l218 -461h-119zM430 461l254 461h119l-215 -461l215 -461h-119z" />
<glyph unicode="&#xac;" horiz-adv-x="1363" d="M205 651v78h954v-547h-78v469h-876z" />
<glyph unicode="&#xad;" horiz-adv-x="829" d="M74 434v78h682v-78h-682z" />
<glyph unicode="&#xae;" horiz-adv-x="1914" d="M123 717q0 146 57 278.5t153 228.5t228.5 153t278.5 57q145 0 278 -57t228.5 -153t152.5 -228.5t57 -278.5t-57 -278.5t-152.5 -228.5t-228.5 -153t-278 -57q-146 0 -278.5 57t-228.5 153t-153 228.5t-57 278.5zM188 717q0 -178 87 -327.5t237 -236.5t328 -87 q177 0 327 87t237 236.5t87 327.5q0 133 -51.5 253.5t-138.5 207.5t-207.5 138.5t-253.5 51.5t-254 -51.5t-208 -138.5t-138.5 -207.5t-51.5 -253.5zM526 317v789h68v-789h-68zM623 678v39h174q87 0 151 51.5t64 128.5q0 78 -64 129t-151 51q-95 0 -174 -8v37q98 10 174 10 q135 0 216 -54.5t81 -164.5q0 -93 -59 -147t-161 -68l248 -365h-82l-219 324q-11 17 -49 26t-67.5 10t-81.5 1z" />
<glyph unicode="&#xaf;" d="M246 1112v66h491v-66h-491z" />
<glyph unicode="&#xb0;" horiz-adv-x="811" d="M147 1106q0 107 75.5 182.5t183.5 75.5q107 0 182.5 -75.5t75.5 -182.5t-75.5 -182.5t-182.5 -75.5q-108 0 -183.5 75.5t-75.5 182.5zM213 1106q0 -80 56.5 -136.5t136.5 -56.5t136 56.5t56 136.5t-56 136t-136 56t-136.5 -56t-56.5 -136z" />
<glyph unicode="&#xb1;" horiz-adv-x="1593" d="M154 0v78h1286v-78h-1286zM154 551v78h604v604h78v-604h604v-78h-604v-404h-78v404h-604z" />
<glyph unicode="&#xb2;" horiz-adv-x="665" d="M82 795v55l260 285q139 153 139 323q0 60 -43.5 102t-105.5 42q-68 0 -131.5 -30t-108.5 -83v51q43 54 107 84.5t133 30.5q98 0 169.5 -55.5t71.5 -141.5q0 -96 -50.5 -181t-139.5 -179l-219 -230h420v-73h-502z" />
<glyph unicode="&#xb3;" horiz-adv-x="665" d="M82 856v51q115 -71 250 -71q60 0 102.5 57t42.5 135q0 111 -51.5 152t-175.5 41v47q114 0 162.5 40.5t48.5 145.5q0 67 -39.5 108.5t-104.5 41.5q-118 0 -208 -72v51q90 72 208 72q107 0 171.5 -55t64.5 -146q0 -72 -40.5 -122t-111.5 -68q80 -22 131.5 -88t51.5 -148 q0 -100 -74 -172t-178 -72q-134 0 -250 72z" />
<glyph unicode="&#xb4;" d="M426 1044q77 79 118.5 180t41.5 210h135q0 -56 -18 -109t-57.5 -106.5t-69 -86.5t-84.5 -88h-66z" />
<glyph unicode="&#xb5;" horiz-adv-x="1079" d="M154 -352v1274h118v-662q0 -84 54.5 -145.5t134.5 -61.5q142 0 282 78v-47q-161 -100 -323 -100q-91 0 -164 57v-393h-102zM797 0v922h118v-922h-118z" />
<glyph unicode="&#xb6;" horiz-adv-x="958" d="M74 973q0 154 80.5 259.5t214 153.5t311.5 48v-1670h-66v748q-244 0 -392 120.5t-148 340.5zM750 -236v1670h135v-66h-70v-1604h-65z" />
<glyph unicode="&#xb7;" horiz-adv-x="569" d="M209 512q0 31 22.5 53.5t53.5 22.5t53 -22.5t22 -53.5t-22 -53.5t-53 -22.5t-53.5 22.5t-22.5 53.5z" />
<glyph unicode="&#xb8;" d="M350 -385q51 -21 90 -21q45 0 68.5 41.5t23.5 100.5q0 62 -26.5 117.5t-75.5 93.5h55q68 -38 108 -106t40 -144q0 -67 -40.5 -117.5t-100.5 -50.5q-81 0 -142 43v43z" />
<glyph unicode="&#xb9;" horiz-adv-x="540" d="M82 1399v51q126 70 227 195h68v-850h-92v735q-93 -82 -203 -131z" />
<glyph unicode="&#xba;" horiz-adv-x="731" d="M74 786v52h583v-52h-583zM74 1163q0 140 75 213.5t218 73.5q141 0 215.5 -73.5t74.5 -213.5q0 -139 -74.5 -212.5t-215.5 -73.5q-143 0 -218 73t-75 213zM172 1163q0 -119 50 -182t145 -63q94 0 144 63t50 182q0 121 -50 184.5t-144 63.5q-95 0 -145 -63.5t-50 -184.5z " />
<glyph unicode="&#xbb;" horiz-adv-x="913" d="M100 0l215 461l-215 461h119l254 -461l-254 -461h-119zM455 0l217 461l-217 461h118l256 -461l-256 -461h-118z" />
<glyph unicode="&#xbc;" horiz-adv-x="1300" d="M123 1194v51q126 70 227 195h68v-850h-92v735q-93 -82 -203 -131zM233 0l738 1434h73l-737 -1434h-74zM676 297v55l321 498h93v-498h88v-55h-88v-297h-93v756l-260 -404h228v-55h-289z" />
<glyph unicode="&#xbd;" horiz-adv-x="1411" d="M123 1194v51q126 70 227 195h68v-850h-92v735q-93 -82 -203 -131zM233 0l738 1434h73l-737 -1434h-74zM786 0v55l261 285q139 154 139 324q0 59 -44 101t-106 42q-68 0 -131 -30t-108 -83v51q43 54 106.5 84.5t132.5 30.5q98 0 170 -55.5t72 -140.5q0 -96 -50.5 -181 t-140.5 -180l-219 -229h420v-74h-502z" />
<glyph unicode="&#xbe;" horiz-adv-x="1433" d="M123 651v51q115 -71 250 -71q60 0 102.5 57t42.5 135q0 111 -51.5 152t-175.5 41v47q114 0 162.5 40.5t48.5 145.5q0 67 -39.5 108.5t-104.5 41.5q-118 0 -208 -72v51q90 72 208 72q107 0 171.5 -55t64.5 -146q0 -72 -40.5 -122t-111.5 -68q80 -22 131.5 -88t51.5 -148 q0 -100 -74 -171.5t-178 -71.5q-135 0 -250 71zM367 0l737 1434h74l-738 -1434h-73zM809 297v55l321 498h93v-498h88v-55h-88v-297h-93v756l-260 -404h228v-55h-289z" />
<glyph unicode="&#xbf;" horiz-adv-x="790" d="M74 -74q0 79 6 129t28 100.5t46.5 86.5t78.5 108q71 93 99.5 140.5t44.5 114t16 169.5h66v-43t-0.5 -43t-2 -43.5t-4 -43.5t-7 -43t-11.5 -42q-21 -63 -71 -138.5t-89 -129.5q-57 -88 -69 -142.5t-12 -179.5q0 -90 58.5 -155.5t143.5 -65.5q98 0 183.5 48t138.5 132v-65 q-52 -85 -138 -132.5t-184 -47.5q-132 0 -226.5 82t-94.5 204zM350 997q0 31 22.5 53.5t53.5 22.5q32 0 54 -22.5t22 -53.5t-22 -53t-54 -22q-31 0 -53.5 22t-22.5 53z" />
<glyph unicode="&#xc0;" horiz-adv-x="1220" d="M20 0l529 1434h131l520 -1434h-131l-182 502h-606l-187 -502h-74zM297 1802h135q104 -165 248 -291h-66q-176 122 -317 291zM305 571h557l-276 760z" />
<glyph unicode="&#xc1;" horiz-adv-x="1220" d="M20 0l529 1434h131l520 -1434h-131l-182 502h-606l-187 -502h-74zM305 571h557l-276 760zM549 1511q144 126 248 291h135q-142 -170 -318 -291h-65z" />
<glyph unicode="&#xc2;" horiz-adv-x="1220" d="M20 0l529 1434h131l520 -1434h-131l-182 502h-606l-187 -502h-74zM287 1511l250 291h155l250 -291h-65l-263 224l-262 -224h-65zM305 571h557l-276 760z" />
<glyph unicode="&#xc3;" horiz-adv-x="1220" d="M20 0l529 1434h131l520 -1434h-131l-182 502h-606l-187 -502h-74zM303 1593q32 38 51.5 59.5t50 51.5t58 44.5t51.5 14.5q27 0 54.5 -16.5t48 -35.5t49 -35.5t55.5 -16.5q44 0 79.5 28t73.5 76l52 -43q-33 -38 -51.5 -59t-50 -51.5t-58.5 -45t-51 -14.5q-27 0 -54.5 16.5 t-48 36t-49 36t-55.5 16.5q-44 0 -79.5 -27.5t-74.5 -77.5zM305 571h557l-276 760z" />
<glyph unicode="&#xc4;" horiz-adv-x="1220" d="M20 0l529 1434h131l520 -1434h-131l-182 502h-606l-187 -502h-74zM305 571h557l-276 760zM350 1655q0 29 20.5 49t49.5 20q28 0 47.5 -20t19.5 -49q0 -28 -19.5 -48t-47.5 -20q-29 0 -49.5 20t-20.5 48zM739 1655q0 29 20.5 49t49.5 20q28 0 48 -20t20 -49q0 -28 -20 -48 t-48 -20q-29 0 -49.5 20t-20.5 48z" />
<glyph unicode="&#xc5;" horiz-adv-x="1220" d="M20 0l519 1407q-44 22 -70.5 63.5t-26.5 92.5q0 71 51 121.5t121 50.5q71 0 121.5 -50.5t50.5 -121.5q0 -52 -26 -93t-70 -63l510 -1407h-131l-182 502h-606l-187 -502h-74zM305 571h557l-276 760zM485 1563q0 -54 38 -91.5t91 -37.5q54 0 91.5 37.5t37.5 91.5 q0 52 -37.5 89.5t-91.5 37.5q-53 0 -91 -37.5t-38 -89.5z" />
<glyph unicode="&#xc6;" horiz-adv-x="2011" d="M20 0l709 1434h1116v-70h-817v-612h664v-70h-664v-612h860v-70h-983v1364h-133l-391 -793h471v-69h-506l-248 -502h-78z" />
<glyph unicode="&#xc7;" horiz-adv-x="1265" d="M123 717q0 217 68.5 380.5t208.5 258t337 94.5q139 0 262.5 -62.5t204.5 -173.5v-81q-78 116 -202 181.5t-265 65.5q-98 0 -176 -33.5t-131.5 -92.5t-88.5 -143t-51 -181.5t-16 -212.5t16 -212.5t51 -182t88.5 -143.5t131.5 -92.5t176 -33.5q233 0 439 117v-70 q-207 -116 -439 -116q-197 0 -337 94.5t-208.5 258t-68.5 380.5zM629 -385q49 -21 92 -21t67.5 42t24.5 100q0 61 -27 116.5t-75 94.5h53q68 -38 107.5 -105.5t39.5 -144.5q0 -68 -40 -118t-101 -50q-77 0 -141 43v43z" />
<glyph unicode="&#xc8;" horiz-adv-x="1310" d="M205 0v1434h940v-70h-817v-612h663v-70h-663v-612h860v-70h-983zM356 1802h136q102 -164 247 -291h-65q-172 119 -318 291z" />
<glyph unicode="&#xc9;" horiz-adv-x="1310" d="M205 0v1434h940v-70h-817v-612h663v-70h-663v-612h860v-70h-983zM610 1511q146 126 248 291h135q-143 -171 -317 -291h-66z" />
<glyph unicode="&#xca;" horiz-adv-x="1310" d="M205 0v1434h940v-70h-817v-612h663v-70h-663v-612h860v-70h-983zM348 1511l250 291h156l250 -291h-66l-262 224l-262 -224h-66z" />
<glyph unicode="&#xcb;" horiz-adv-x="1310" d="M205 0v1434h940v-70h-817v-612h663v-70h-663v-612h860v-70h-983zM412 1655q0 29 20 49t49 20q28 0 48 -20t20 -49q0 -28 -20 -48t-48 -20q-29 0 -49 20t-20 48zM801 1655q0 29 20 49t49 20q28 0 48 -20t20 -49q0 -28 -20 -48t-48 -20q-29 0 -49 20t-20 48z" />
<glyph unicode="&#xcc;" horiz-adv-x="532" d="M-51 1802h135q104 -165 248 -291h-66q-174 120 -317 291zM205 0v1434h123v-1434h-123z" />
<glyph unicode="&#xcd;" horiz-adv-x="532" d="M201 1511q144 126 248 291h135q-142 -170 -318 -291h-65zM205 0v1434h123v-1434h-123z" />
<glyph unicode="&#xce;" horiz-adv-x="532" d="M-61 1511l249 291h156l250 -291h-66l-262 224l-262 -224h-65zM205 0v1434h123v-1434h-123z" />
<glyph unicode="&#xcf;" horiz-adv-x="532" d="M2 1655q0 29 20.5 49t49.5 20q28 0 47.5 -20t19.5 -49q0 -28 -19.5 -48t-47.5 -20q-29 0 -49.5 20t-20.5 48zM205 0v1434h123v-1434h-123zM391 1655q0 29 20.5 49t49.5 20q28 0 47.5 -20t19.5 -49q0 -28 -19.5 -48t-47.5 -20q-29 0 -49.5 20t-20.5 48z" />
<glyph unicode="&#xd0;" horiz-adv-x="1359" d="M20 682v70h62v682h123v-682h278v-70h-278v-682h-123v682h-62zM258 0v70q178 -17 344 -17q111 0 203.5 56t153 149.5t93.5 212t33 246.5t-33 246.5t-93.5 211.5t-153 149t-203.5 56q-160 0 -344 -16v70q184 16 344 16q202 0 346.5 -93.5t216.5 -257.5t72 -382t-72 -382 t-216.5 -257.5t-346.5 -93.5q-160 0 -344 16z" />
<glyph unicode="&#xd1;" horiz-adv-x="1564" d="M205 0v1434h88l997 -1258v1258h70v-1434h-88l-998 1257v-1257h-69zM471 1593q40 49 68 79.5t70 60.5t73 30q27 0 54.5 -16.5t48 -35.5t49 -35.5t55.5 -16.5q44 0 78.5 27.5t74.5 76.5l52 -43q-33 -38 -51.5 -59t-50 -51.5t-58.5 -45t-51 -14.5q-27 0 -54.5 16.5t-48 36 t-49 36t-55.5 16.5q-44 0 -79.5 -27.5t-74.5 -77.5z" />
<glyph unicode="&#xd2;" horiz-adv-x="1474" d="M123 717q0 217 68.5 380.5t208.5 258t337 94.5t337.5 -94.5t209 -258t68.5 -380.5t-68.5 -380.5t-209 -258t-337.5 -94.5t-337 94.5t-208.5 258t-68.5 380.5zM274 717q0 -115 16 -212.5t51 -182t88.5 -143.5t131.5 -92.5t176 -33.5t176 33.5t131.5 92.5t88.5 143.5 t51 182t16 212.5t-16 212.5t-51 181.5t-88.5 143t-131.5 92.5t-176 33.5t-176 -33.5t-131.5 -92.5t-88.5 -143t-51 -181.5t-16 -212.5zM420 1802h135q104 -165 248 -291h-66q-174 120 -317 291z" />
<glyph unicode="&#xd3;" horiz-adv-x="1474" d="M123 717q0 217 68.5 380.5t208.5 258t337 94.5t337.5 -94.5t209 -258t68.5 -380.5t-68.5 -380.5t-209 -258t-337.5 -94.5t-337 94.5t-208.5 258t-68.5 380.5zM274 717q0 -115 16 -212.5t51 -182t88.5 -143.5t131.5 -92.5t176 -33.5t176 33.5t131.5 92.5t88.5 143.5 t51 182t16 212.5t-16 212.5t-51 181.5t-88.5 143t-131.5 92.5t-176 33.5t-176 -33.5t-131.5 -92.5t-88.5 -143t-51 -181.5t-16 -212.5zM672 1511q144 126 248 291h135q-142 -170 -318 -291h-65z" />
<glyph unicode="&#xd4;" horiz-adv-x="1474" d="M123 717q0 217 68.5 380.5t208.5 258t337 94.5t337.5 -94.5t209 -258t68.5 -380.5t-68.5 -380.5t-209 -258t-337.5 -94.5t-337 94.5t-208.5 258t-68.5 380.5zM274 717q0 -115 16 -212.5t51 -182t88.5 -143.5t131.5 -92.5t176 -33.5t176 33.5t131.5 92.5t88.5 143.5 t51 182t16 212.5t-16 212.5t-51 181.5t-88.5 143t-131.5 92.5t-176 33.5t-176 -33.5t-131.5 -92.5t-88.5 -143t-51 -181.5t-16 -212.5zM410 1511l249 291h156l250 -291h-66l-262 224l-262 -224h-65z" />
<glyph unicode="&#xd5;" horiz-adv-x="1474" d="M123 717q0 217 68.5 380.5t208.5 258t337 94.5t337.5 -94.5t209 -258t68.5 -380.5t-68.5 -380.5t-209 -258t-337.5 -94.5t-337 94.5t-208.5 258t-68.5 380.5zM274 717q0 -115 16 -212.5t51 -182t88.5 -143.5t131.5 -92.5t176 -33.5t176 33.5t131.5 92.5t88.5 143.5 t51 182t16 212.5t-16 212.5t-51 181.5t-88.5 143t-131.5 92.5t-176 33.5t-176 -33.5t-131.5 -92.5t-88.5 -143t-51 -181.5t-16 -212.5zM426 1593q40 49 68 79.5t70 60.5t73 30q27 0 54.5 -16.5t48 -35.5t49 -35.5t55.5 -16.5q44 0 78.5 27.5t74.5 76.5l52 -43 q-33 -38 -51.5 -59t-50 -51.5t-58.5 -45t-51 -14.5q-27 0 -54.5 16.5t-48 36t-49 36t-55.5 16.5q-44 0 -79.5 -27.5t-74.5 -77.5z" />
<glyph unicode="&#xd6;" horiz-adv-x="1474" d="M123 717q0 217 68.5 380.5t208.5 258t337 94.5t337.5 -94.5t209 -258t68.5 -380.5t-68.5 -380.5t-209 -258t-337.5 -94.5t-337 94.5t-208.5 258t-68.5 380.5zM274 717q0 -115 16 -212.5t51 -182t88.5 -143.5t131.5 -92.5t176 -33.5t176 33.5t131.5 92.5t88.5 143.5 t51 182t16 212.5t-16 212.5t-51 181.5t-88.5 143t-131.5 92.5t-176 33.5t-176 -33.5t-131.5 -92.5t-88.5 -143t-51 -181.5t-16 -212.5zM473 1655q0 29 20.5 49t49.5 20q28 0 47.5 -20t19.5 -49q0 -28 -19.5 -48t-47.5 -20q-29 0 -49.5 20t-20.5 48zM862 1655q0 29 20.5 49 t49.5 20q28 0 47.5 -20t19.5 -49q0 -28 -19.5 -48t-47.5 -20q-29 0 -49.5 20t-20.5 48z" />
<glyph unicode="&#xd7;" horiz-adv-x="1593" d="M315 84l426 428l-426 428l54 53l428 -426l428 426l53 -53l-426 -428l426 -428l-53 -53l-428 426l-428 -426z" />
<glyph unicode="&#xd8;" horiz-adv-x="1474" d="M123 717q0 217 68.5 380.5t208.5 258t337 94.5q226 0 377 -123l125 182h80l-156 -227q189 -198 189 -565q0 -217 -68.5 -380.5t-209 -258t-337.5 -94.5q-223 0 -377 122l-124 -182h-80l155 228q-188 197 -188 565zM274 717q0 -298 105 -467l678 991q-117 139 -320 139 q-98 0 -176 -33.5t-131.5 -92.5t-88.5 -143t-51 -181.5t-16 -212.5zM418 193q116 -140 319 -140q98 0 176 33.5t131.5 92.5t88.5 143.5t51 182t16 212.5q0 297 -104 467z" />
<glyph unicode="&#xd9;" horiz-adv-x="1400" d="M184 401v1033h123v-1004q0 -164 124 -276.5t296 -112.5t296 112.5t124 276.5v1004h70v-1033q0 -123 -73 -223t-190.5 -153.5t-253.5 -53.5q-135 0 -252.5 53.5t-190.5 153.5t-73 223zM383 1802h135q104 -165 248 -291h-66q-176 122 -317 291z" />
<glyph unicode="&#xda;" horiz-adv-x="1400" d="M184 401v1033h123v-1004q0 -164 124 -276.5t296 -112.5t296 112.5t124 276.5v1004h70v-1033q0 -123 -73 -223t-190.5 -153.5t-253.5 -53.5q-135 0 -252.5 53.5t-190.5 153.5t-73 223zM635 1511q144 126 248 291h135q-142 -170 -318 -291h-65z" />
<glyph unicode="&#xdb;" horiz-adv-x="1400" d="M184 401v1033h123v-1004q0 -164 124 -276.5t296 -112.5t296 112.5t124 276.5v1004h70v-1033q0 -123 -73 -223t-190.5 -153.5t-253.5 -53.5q-135 0 -252.5 53.5t-190.5 153.5t-73 223zM373 1511l250 291h155l250 -291h-65l-263 224l-262 -224h-65z" />
<glyph unicode="&#xdc;" horiz-adv-x="1400" d="M184 401v1033h123v-1004q0 -164 124 -276.5t296 -112.5t296 112.5t124 276.5v1004h70v-1033q0 -123 -73 -223t-190.5 -153.5t-253.5 -53.5q-135 0 -252.5 53.5t-190.5 153.5t-73 223zM436 1655q0 29 20.5 49t49.5 20q28 0 47.5 -20t19.5 -49q0 -28 -19.5 -48t-47.5 -20 q-29 0 -49.5 20t-20.5 48zM825 1655q0 29 20.5 49t49.5 20q28 0 48 -20t20 -49q0 -28 -20 -48t-48 -20q-29 0 -49.5 20t-20.5 48z" />
<glyph unicode="&#xdd;" horiz-adv-x="1142" d="M41 1434h139l414 -764l448 764h80l-479 -818v-616h-123v573zM516 1511q144 126 248 291h135q-141 -169 -317 -291h-66z" />
<glyph unicode="&#xde;" horiz-adv-x="1339" d="M184 0v1434h123v-1434h-123zM360 371v69q163 -28 318 -28q157 0 272 85t115 220q0 90 -55 161t-143 107.5t-189 36.5q-150 0 -318 -16v69q178 17 318 17q116 0 211.5 -21t170 -64.5t116 -117.5t41.5 -172q0 -99 -41.5 -172.5t-116 -117t-169.5 -64.5t-212 -21 q-158 0 -318 29z" />
<glyph unicode="&#xdf;" horiz-adv-x="1028" d="M164 0v1075q0 156 114 265.5t273 109.5q136 0 235 -87.5t99 -215.5q0 -106 -70 -184t-176 -91q-87 0 -151 -48t-64 -124q0 -37 21.5 -65.5t55 -45.5t75 -32.5t81.5 -26.5q58 -19 106.5 -43t91.5 -57.5t67 -78.5t24 -97q0 -115 -91 -192.5t-216 -77.5q-146 0 -266 84v65 q122 -84 266 -84q79 0 135.5 50t56.5 124q0 136 -208 205q-267 90 -267 256q0 107 83.5 180.5t199.5 73.5q78 12 129 71t51 138q0 101 -79.5 169t-188.5 68t-188.5 -68t-79.5 -169v-1147h-119z" />
<glyph unicode="&#xe0;" horiz-adv-x="1067" d="M92 285q0 148 105.5 225.5t277.5 77.5q128 0 256 -47v-66q-121 47 -252 47q-104 0 -178 -68.5t-74 -168.5q0 -110 68.5 -173t183.5 -63q123 0 252 101v-66q-146 -100 -287 -100q-159 0 -255.5 79t-96.5 222zM207 791v47q195 100 383 100q135 0 224 -109.5t89 -259.5v-569 h-119v569q0 121 -64.5 210t-166.5 89q-176 0 -346 -77zM324 1434h135q0 -109 41 -210t118 -180h-65q-54 54 -84.5 88t-69.5 87t-57 106t-18 109z" />
<glyph unicode="&#xe1;" horiz-adv-x="1067" d="M92 285q0 148 105.5 225.5t277.5 77.5q128 0 256 -47v-66q-121 47 -252 47q-104 0 -178 -68.5t-74 -168.5q0 -110 68.5 -173t183.5 -63q123 0 252 101v-66q-146 -100 -287 -100q-159 0 -255.5 79t-96.5 222zM207 791v47q195 100 383 100q135 0 224 -109.5t89 -259.5v-569 h-119v569q0 121 -64.5 210t-166.5 89q-176 0 -346 -77zM487 1044q77 79 118.5 179.5t41.5 210.5h135q0 -56 -18 -109t-57 -106t-69.5 -87t-84.5 -88h-66z" />
<glyph unicode="&#xe2;" horiz-adv-x="1067" d="M92 285q0 148 105.5 225.5t277.5 77.5q128 0 256 -47v-66q-121 47 -252 47q-104 0 -178 -68.5t-74 -168.5q0 -110 68.5 -173t183.5 -63q123 0 252 101v-66q-146 -100 -287 -100q-159 0 -255.5 79t-96.5 222zM207 791v47q195 100 383 100q135 0 224 -109.5t89 -259.5v-569 h-119v569q0 121 -64.5 210t-166.5 89q-176 0 -346 -77zM258 1044l229 390h131l230 -390h-66l-229 304l-229 -304h-66z" />
<glyph unicode="&#xe3;" horiz-adv-x="1067" d="M92 285q0 148 105.5 225.5t277.5 77.5q128 0 256 -47v-66q-121 47 -252 47q-104 0 -178 -68.5t-74 -168.5q0 -110 68.5 -173t183.5 -63q123 0 252 101v-66q-146 -100 -287 -100q-159 0 -255.5 79t-96.5 222zM207 791v47q195 100 383 100q135 0 224 -109.5t89 -259.5v-569 h-119v569q0 121 -64.5 210t-166.5 89q-176 0 -346 -77zM274 1182q14 17 30 35t32 35.5t33 33t33 27.5t32.5 19t30.5 7q36 0 91 -45t91 -45q39 0 69.5 23.5t63.5 66.5l51 -43q-33 -39 -47.5 -55t-44.5 -46t-53.5 -43t-44.5 -13q-30 0 -60.5 22.5l-61 45t-60.5 22.5 q-65 0 -133 -90z" />
<glyph unicode="&#xe4;" horiz-adv-x="1067" d="M92 285q0 148 105.5 225.5t277.5 77.5q128 0 256 -47v-66q-121 47 -252 47q-104 0 -178 -68.5t-74 -168.5q0 -110 68.5 -173t183.5 -63q123 0 252 101v-66q-146 -100 -287 -100q-159 0 -255.5 79t-96.5 222zM207 791v47q195 100 383 100q135 0 224 -109.5t89 -259.5v-569 h-119v569q0 121 -64.5 210t-166.5 89q-176 0 -346 -77zM309 1237q0 29 20.5 49.5t49.5 20.5q28 0 47.5 -20.5t19.5 -49.5q0 -28 -19.5 -48t-47.5 -20q-29 0 -49.5 20t-20.5 48zM657 1237q0 29 20.5 49.5t49.5 20.5q28 0 48 -20.5t20 -49.5q0 -28 -20 -48t-48 -20 q-29 0 -49.5 20t-20.5 48z" />
<glyph unicode="&#xe5;" horiz-adv-x="1067" d="M92 285q0 148 105.5 225.5t277.5 77.5q128 0 256 -47v-66q-121 47 -252 47q-104 0 -178 -68.5t-74 -168.5q0 -110 68.5 -173t183.5 -63q123 0 252 101v-66q-146 -100 -287 -100q-159 0 -255.5 79t-96.5 222zM207 791v47q195 100 383 100q135 0 224 -109.5t89 -259.5v-569 h-119v569q0 121 -64.5 210t-166.5 89q-176 0 -346 -77zM381 1239q0 71 50.5 121.5t121.5 50.5t121.5 -50.5t50.5 -121.5t-50.5 -121.5t-121.5 -50.5t-121.5 50.5t-50.5 121.5zM424 1239q0 -54 37.5 -91.5t91.5 -37.5t91.5 37.5t37.5 91.5t-37.5 91.5t-91.5 37.5t-91.5 -37.5 t-37.5 -91.5z" />
<glyph unicode="&#xe6;" horiz-adv-x="1699" d="M92 285q0 148 105.5 225.5t277.5 77.5q128 0 256 -47v-66q-121 47 -252 47q-104 0 -178 -68.5t-74 -168.5q0 -110 68.5 -173t183.5 -63q123 0 252 101v-66q-146 -100 -287 -100q-159 0 -255.5 79t-96.5 222zM207 791v47q195 100 383 100q88 0 159 -50t111 -132 q55 87 140 134.5t192 47.5q183 0 294 -131t111 -346v-17h-622v66h487q0 147 -74 254.5t-196 107.5t-196 -112.5t-74 -298.5q0 -106 29 -197t92 -151t149 -60q88 0 155.5 22.5t139.5 76.5v-66q-126 -102 -295 -102q-176 0 -289 125v-109h-119v569q0 121 -64.5 210t-166.5 89 q-176 0 -346 -77z" />
<glyph unicode="&#xe7;" horiz-adv-x="901" d="M113 461q0 215 121.5 346t320.5 131q169 0 295 -111v-65q-67 60 -135.5 85t-159.5 25q-138 0 -222.5 -112.5t-84.5 -298.5t84.5 -299t222.5 -113q91 0 151 23t128 84v-66q-118 -106 -279 -106q-199 0 -320.5 131t-121.5 346zM446 -385q51 -21 93 -21q43 0 67.5 42 t24.5 100q0 61 -27.5 117t-75.5 94h54q68 -38 107.5 -105.5t39.5 -144.5q0 -68 -40 -118t-101 -50q-78 0 -142 43v43z" />
<glyph unicode="&#xe8;" horiz-adv-x="1026" d="M113 461q0 215 111 346t294 131t294.5 -131t111.5 -346v-17h-623v66h487q0 147 -74 254.5t-196 107.5t-196 -112.5t-74 -298.5q0 -106 29 -197t92 -151t149 -60q88 0 155.5 22.5t139.5 76.5v-66q-126 -102 -295 -102q-183 0 -294 131t-111 346zM289 1434h135 q0 -110 41.5 -210.5t118.5 -179.5h-66q-55 55 -84.5 88t-69 86.5t-57.5 106.5t-18 109z" />
<glyph unicode="&#xe9;" horiz-adv-x="1026" d="M113 461q0 215 111 346t294 131t294.5 -131t111.5 -346v-17h-623v66h487q0 147 -74 254.5t-196 107.5t-196 -112.5t-74 -298.5q0 -106 29 -197t92 -151t149 -60q88 0 155.5 22.5t139.5 76.5v-66q-126 -102 -295 -102q-183 0 -294 131t-111 346zM453 1044q77 79 118 180 t41 210h136q0 -56 -18 -109t-57.5 -106t-69.5 -86.5t-85 -88.5h-65z" />
<glyph unicode="&#xea;" horiz-adv-x="1026" d="M113 461q0 215 111 346t294 131t294.5 -131t111.5 -346v-17h-623v66h487q0 147 -74 254.5t-196 107.5t-196 -112.5t-74 -298.5q0 -106 29 -197t92 -151t149 -60q88 0 155.5 22.5t139.5 76.5v-66q-126 -102 -295 -102q-183 0 -294 131t-111 346zM223 1044l230 390h131 l229 -390h-65l-230 304l-229 -304h-66z" />
<glyph unicode="&#xeb;" horiz-adv-x="1026" d="M113 461q0 215 111 346t294 131t294.5 -131t111.5 -346v-17h-623v66h487q0 147 -74 254.5t-196 107.5t-196 -112.5t-74 -298.5q0 -106 29 -197t92 -151t149 -60q88 0 155.5 22.5t139.5 76.5v-66q-126 -102 -295 -102q-183 0 -294 131t-111 346zM274 1237q0 29 20.5 49.5 t49.5 20.5q28 0 48 -20.5t20 -49.5q0 -28 -20 -48t-48 -20q-29 0 -49.5 20t-20.5 48zM623 1237q0 29 20 49.5t49 20.5q28 0 48 -20.5t20 -49.5q0 -28 -20 -48t-48 -20q-29 0 -49 20t-20 48z" />
<glyph unicode="&#xec;" horiz-adv-x="563" d="M-16 1434h135q0 -110 41.5 -210.5t118.5 -179.5h-66q-54 54 -84.5 88t-69.5 87t-57 106t-18 109zM154 260v662h118v-662q0 -207 101 -207q73 0 149 58v-48q-104 -79 -203 -79q-82 0 -123.5 81.5t-41.5 194.5z" />
<glyph unicode="&#xed;" horiz-adv-x="563" d="M147 1044q77 79 118.5 179.5t41.5 210.5h135q0 -56 -18 -109t-57 -106t-69.5 -87t-84.5 -88h-66zM154 260v662h118v-662q0 -207 101 -207q73 0 149 58v-48q-104 -79 -203 -79q-82 0 -123.5 81.5t-41.5 194.5z" />
<glyph unicode="&#xee;" horiz-adv-x="563" d="M-82 1044l229 390h132l229 -390h-66l-229 304l-229 -304h-66zM154 260v662h118v-662q0 -207 101 -207q73 0 149 58v-48q-104 -79 -203 -79q-82 0 -123.5 81.5t-41.5 194.5z" />
<glyph unicode="&#xef;" horiz-adv-x="563" d="M-31 1237q0 29 20.5 49.5t49.5 20.5q28 0 47.5 -20.5t19.5 -49.5q0 -28 -19.5 -48t-47.5 -20q-29 0 -49.5 20t-20.5 48zM154 260v662h118v-662q0 -207 101 -207q73 0 149 58v-48q-104 -79 -203 -79q-82 0 -123.5 81.5t-41.5 194.5zM317 1237q0 29 20.5 49.5t49.5 20.5 q28 0 48 -20.5t20 -49.5q0 -28 -20 -48t-48 -20q-29 0 -49.5 20t-20.5 48z" />
<glyph unicode="&#xf0;" d="M76 461q0 477 375 477q85 0 158.5 -44.5t113.5 -119.5v-65q-40 75 -113.5 119t-158.5 44q-63 0 -111 -35.5t-75 -95.5t-40.5 -130.5t-13.5 -149.5q0 -185 78.5 -298.5t204.5 -113.5q148 0 215 157t67 503q0 347 -92 514l-209 -121l-33 55l205 119q-76 92 -196 92 q-146 0 -279 -76v66q130 76 279 76q157 0 268 -117l158 92l32 -57l-147 -86q73 -102 111 -249t38 -308q0 -380 -99 -552.5t-318 -172.5q-188 0 -303 131t-115 346z" />
<glyph unicode="&#xf1;" horiz-adv-x="1079" d="M164 0v922h119v-922h-119zM266 1182q18 21 36 42.5t39 42t40 36.5t39 26t37 10q30 0 60.5 -22.5l61 -45t60.5 -22.5q39 0 69.5 24t63.5 66l51 -43q-33 -39 -47.5 -55t-44.5 -46t-53.5 -43t-44.5 -13q-30 0 -60.5 22.5l-61 45t-60.5 22.5q-39 0 -70 -24t-64 -66zM336 791 v47q161 100 323 100q112 0 189.5 -81t77.5 -195v-662h-119v662q0 84 -54.5 145t-134.5 61q-144 0 -282 -77z" />
<glyph unicode="&#xf2;" horiz-adv-x="1036" d="M113 461q0 232 103.5 354.5t301.5 122.5t302 -122.5t104 -354.5t-104 -354.5t-302 -122.5t-301.5 122.5t-103.5 354.5zM248 461q0 -201 69 -306.5t201 -105.5t201 105.5t69 306.5t-69 306t-201 105t-201 -105t-69 -306zM289 1434h135q0 -110 41.5 -210.5t118.5 -179.5 h-66q-55 55 -84.5 88t-69 86.5t-57.5 106.5t-18 109z" />
<glyph unicode="&#xf3;" horiz-adv-x="1036" d="M113 461q0 232 103.5 354.5t301.5 122.5t302 -122.5t104 -354.5t-104 -354.5t-302 -122.5t-301.5 122.5t-103.5 354.5zM248 461q0 -201 69 -306.5t201 -105.5t201 105.5t69 306.5t-69 306t-201 105t-201 -105t-69 -306zM453 1044q77 79 118 180t41 210h136 q0 -56 -18 -109t-57.5 -106t-69.5 -86.5t-85 -88.5h-65z" />
<glyph unicode="&#xf4;" horiz-adv-x="1036" d="M113 461q0 232 103.5 354.5t301.5 122.5t302 -122.5t104 -354.5t-104 -354.5t-302 -122.5t-301.5 122.5t-103.5 354.5zM223 1044l230 390h131l229 -390h-65l-230 304l-229 -304h-66zM248 461q0 -201 69 -306.5t201 -105.5t201 105.5t69 306.5t-69 306t-201 105t-201 -105 t-69 -306z" />
<glyph unicode="&#xf5;" horiz-adv-x="1036" d="M113 461q0 232 103.5 354.5t301.5 122.5t302 -122.5t104 -354.5t-104 -354.5t-302 -122.5t-301.5 122.5t-103.5 354.5zM240 1182q33 39 47.5 55t44.5 46t53.5 43t44.5 13q30 0 60.5 -22.5l61 -45t60.5 -22.5q65 0 133 90l52 -43q-18 -21 -36 -42.5t-39 -42t-40 -36.5 t-39 -26t-37 -10q-30 0 -60.5 22.5l-61 45t-60.5 22.5q-38 0 -69 -24t-64 -66zM248 461q0 -201 69 -306.5t201 -105.5t201 105.5t69 306.5t-69 306t-201 105t-201 -105t-69 -306z" />
<glyph unicode="&#xf6;" horiz-adv-x="1036" d="M113 461q0 232 103.5 354.5t301.5 122.5t302 -122.5t104 -354.5t-104 -354.5t-302 -122.5t-301.5 122.5t-103.5 354.5zM248 461q0 -201 69 -306.5t201 -105.5t201 105.5t69 306.5t-69 306t-201 105t-201 -105t-69 -306zM274 1237q0 29 20.5 49.5t49.5 20.5q28 0 48 -20.5 t20 -49.5q0 -28 -20 -48t-48 -20q-29 0 -49.5 20t-20.5 48zM623 1237q0 29 20 49.5t49 20.5q28 0 48 -20.5t20 -49.5q0 -28 -20 -48t-48 -20q-29 0 -49 20t-20 48z" />
<glyph unicode="&#xf7;" horiz-adv-x="1593" d="M154 473v78h1286v-78h-1286zM721 201q0 31 22.5 53t53.5 22t53 -22t22 -53t-22 -53.5t-53 -22.5t-53.5 22.5t-22.5 53.5zM721 823q0 31 22.5 53.5t53.5 22.5t53 -22.5t22 -53.5t-22 -53t-53 -22t-53.5 22t-22.5 53z" />
<glyph unicode="&#xf8;" horiz-adv-x="1036" d="M113 -59l110 157q-110 121 -110 363q0 232 103.5 354.5t301.5 122.5q146 0 246 -70l80 113h80l-111 -158q111 -120 111 -362q0 -232 -104 -354.5t-302 -122.5q-148 0 -246 69l-79 -112h-80zM248 461q0 -161 45 -262l414 585q-68 88 -189 88q-132 0 -201 -105t-69 -306z M330 137q69 -88 188 -88q132 0 201 105.5t69 306.5q0 160 -45 262z" />
<glyph unicode="&#xf9;" horiz-adv-x="1079" d="M154 260v662h118v-662q0 -84 54.5 -145.5t134.5 -61.5q142 0 282 78v-47q-161 -100 -323 -100q-112 0 -189 81t-77 195zM305 1434h135q0 -109 41.5 -210t118.5 -180h-65q-55 55 -85 88.5t-69.5 86.5t-57.5 106t-18 109zM797 0v922h118v-922h-118z" />
<glyph unicode="&#xfa;" horiz-adv-x="1079" d="M154 260v662h118v-662q0 -84 54.5 -145.5t134.5 -61.5q142 0 282 78v-47q-161 -100 -323 -100q-112 0 -189 81t-77 195zM469 1044q77 79 118.5 180t41.5 210h135q0 -56 -18 -109t-57.5 -106.5t-69 -86.5t-84.5 -88h-66zM797 0v922h118v-922h-118z" />
<glyph unicode="&#xfb;" horiz-adv-x="1079" d="M154 260v662h118v-662q0 -84 54.5 -145.5t134.5 -61.5q142 0 282 78v-47q-161 -100 -323 -100q-112 0 -189 81t-77 195zM240 1044l229 390h131l229 -390h-65l-229 304l-230 -304h-65zM797 0v922h118v-922h-118z" />
<glyph unicode="&#xfc;" horiz-adv-x="1079" d="M154 260v662h118v-662q0 -84 54.5 -145.5t134.5 -61.5q142 0 282 78v-47q-161 -100 -323 -100q-112 0 -189 81t-77 195zM291 1237q0 29 20 49.5t49 20.5q28 0 48 -20.5t20 -49.5q0 -28 -20 -48t-48 -20t-48.5 20t-20.5 48zM639 1237q0 29 20.5 49.5t49.5 20.5 q27 0 47 -20.5t20 -49.5q0 -28 -20 -48t-47 -20q-29 0 -49.5 20t-20.5 48zM797 0v922h118v-922h-118z" />
<glyph unicode="&#xfd;" horiz-adv-x="1079" d="M154 260v662h118v-662q0 -84 54.5 -145.5t134.5 -61.5q142 0 282 78v-47q-161 -100 -323 -100q-112 0 -189 81t-77 195zM244 -367q169 -51 331 -51q101 0 161.5 89t60.5 210v1041h118v-1041q0 -149 -85.5 -258.5t-217.5 -109.5q-190 0 -368 75v45zM469 1044 q77 79 118.5 180t41.5 210h135q0 -56 -18 -109t-57.5 -106.5t-69 -86.5t-84.5 -88h-66z" />
<glyph unicode="&#xfe;" horiz-adv-x="1077" d="M154 -471v1905h118v-1905h-118zM326 31v65q125 -47 252 -47q64 0 114 35.5t79 95t43.5 131t14.5 150.5q0 411 -251 411q-124 0 -252 -100v66q146 100 286 100q176 0 264.5 -131.5t88.5 -345.5q0 -216 -98.5 -346.5t-284.5 -130.5q-132 0 -256 47z" />
<glyph unicode="&#xff;" horiz-adv-x="1079" d="M154 260v662h118v-662q0 -84 54.5 -145.5t134.5 -61.5q142 0 282 78v-47q-161 -100 -323 -100q-112 0 -189 81t-77 195zM244 -367q169 -51 331 -51q101 0 161.5 89t60.5 210v1041h118v-1041q0 -149 -85.5 -258.5t-217.5 -109.5q-190 0 -368 75v45zM291 1237q0 29 20 49.5 t49 20.5q28 0 48 -20.5t20 -49.5q0 -28 -20 -48t-48 -20t-48.5 20t-20.5 48zM639 1237q0 29 20.5 49.5t49.5 20.5q27 0 47 -20.5t20 -49.5q0 -28 -20 -48t-47 -20q-29 0 -49.5 20t-20.5 48z" />
<glyph unicode="&#x152;" horiz-adv-x="2185" d="M123 717q0 217 68.5 380.5t208.5 258t337 94.5q58 0 171.5 -8t170.5 -8h940v-70h-817v-612h664v-70h-664v-612h860v-70h-983q-57 0 -170.5 -8t-171.5 -8q-197 0 -337 94.5t-208.5 258t-68.5 380.5zM274 717q0 -115 16 -212.5t51 -182t88.5 -143.5t131.5 -92.5t176 -33.5 q225 0 342 170v987q-116 170 -342 170q-98 0 -176 -33.5t-131.5 -92.5t-88.5 -143t-51 -181.5t-16 -212.5z" />
<glyph unicode="&#x153;" horiz-adv-x="1703" d="M113 461q0 232 103.5 354.5t301.5 122.5q248 0 344 -186q55 88 141 137t193 49q183 0 294.5 -131t111.5 -346v-17h-623v66h487q0 147 -74 254.5t-196 107.5t-196 -112.5t-74 -298.5q0 -106 29 -197t92 -151t149 -60q88 0 155.5 22.5t139.5 76.5v-66q-126 -102 -295 -102 q-107 0 -193 48.5t-141 137.5q-95 -186 -344 -186q-198 0 -301.5 122.5t-103.5 354.5zM248 461q0 -201 69 -306.5t201 -105.5t201 105.5t69 306.5t-69 306t-201 105t-201 -105t-69 -306z" />
<glyph unicode="&#x178;" horiz-adv-x="1142" d="M41 1434h139l414 -764l448 764h80l-479 -818v-616h-123v573zM317 1655q0 29 20.5 49t49.5 20q28 0 48 -20t20 -49q0 -28 -20 -48t-48 -20q-29 0 -49.5 20t-20.5 48zM707 1655q0 29 20 49t49 20q28 0 48 -20t20 -49q0 -28 -20 -48t-48 -20q-29 0 -49 20t-20 48z" />
<glyph unicode="&#x2c6;" d="M197 1044l229 390h131l229 -390h-65l-229 304l-230 -304h-65z" />
<glyph unicode="&#x2dc;" d="M213 1182q33 39 47.5 55t44.5 46t53.5 43t44.5 13q36 0 91.5 -45t91.5 -45q38 0 69 24t64 66l51 -43q-33 -39 -47.5 -55t-44.5 -46t-53.5 -43t-44.5 -13q-36 0 -91.5 45t-91.5 45q-39 0 -69.5 -24t-63.5 -66z" />
<glyph unicode="&#x2000;" horiz-adv-x="901" />
<glyph unicode="&#x2001;" horiz-adv-x="1802" />
<glyph unicode="&#x2002;" horiz-adv-x="901" />
<glyph unicode="&#x2003;" horiz-adv-x="1802" />
<glyph unicode="&#x2004;" horiz-adv-x="600" />
<glyph unicode="&#x2005;" horiz-adv-x="450" />
<glyph unicode="&#x2006;" horiz-adv-x="300" />
<glyph unicode="&#x2007;" horiz-adv-x="300" />
<glyph unicode="&#x2008;" horiz-adv-x="225" />
<glyph unicode="&#x2009;" horiz-adv-x="360" />
<glyph unicode="&#x200a;" horiz-adv-x="100" />
<glyph unicode="&#x2010;" horiz-adv-x="829" d="M74 434v78h682v-78h-682z" />
<glyph unicode="&#x2011;" horiz-adv-x="829" d="M74 434v78h682v-78h-682z" />
<glyph unicode="&#x2012;" horiz-adv-x="829" d="M74 434v78h682v-78h-682z" />
<glyph unicode="&#x2013;" horiz-adv-x="1024" d="M0 434v78h1024v-78h-1024z" />
<glyph unicode="&#x2014;" horiz-adv-x="2048" d="M0 434v78h2048v-78h-2048z" />
<glyph unicode="&#x2018;" horiz-adv-x="446" d="M164 1047q0 206 110 387h66q-57 -183 -57 -387h-119z" />
<glyph unicode="&#x2019;" horiz-adv-x="446" d="M106 1047q58 184 58 387h119q0 -208 -111 -387h-66z" />
<glyph unicode="&#x201a;" horiz-adv-x="446" d="M106 -236q58 186 58 388h119q0 -208 -111 -388h-66z" />
<glyph unicode="&#x201c;" horiz-adv-x="655" d="M164 1047q0 206 110 387h66q-57 -183 -57 -387h-119zM373 1047q0 211 110 387h66q-57 -183 -57 -387h-119z" />
<glyph unicode="&#x201d;" horiz-adv-x="655" d="M106 1047q58 184 58 387h119q0 -208 -111 -387h-66zM315 1047q58 194 58 387h119q0 -208 -111 -387h-66z" />
<glyph unicode="&#x201e;" horiz-adv-x="655" d="M106 -236q58 186 58 388h119q0 -208 -111 -388h-66zM315 -236q58 196 58 388h119q0 -208 -111 -388h-66z" />
<glyph unicode="&#x2022;" horiz-adv-x="1024" d="M102 512q0 169 120.5 289.5t289.5 120.5t289.5 -120.5t120.5 -289.5t-120.5 -289.5t-289.5 -120.5t-289.5 120.5t-120.5 289.5z" />
<glyph unicode="&#x2026;" horiz-adv-x="958" d="M74 76q0 31 22.5 53.5t53.5 22.5q30 0 52.5 -22.5t22.5 -53.5t-22.5 -53.5t-52.5 -22.5q-31 0 -53.5 22.5t-22.5 53.5zM403 76q0 31 22.5 53.5t53.5 22.5t53.5 -22.5t22.5 -53.5t-22.5 -53.5t-53.5 -22.5t-53.5 22.5t-22.5 53.5zM733 76q0 31 22.5 53.5t53.5 22.5 t53.5 -22.5t22.5 -53.5t-22.5 -53.5t-53.5 -22.5t-53.5 22.5t-22.5 53.5z" />
<glyph unicode="&#x202f;" horiz-adv-x="360" />
<glyph unicode="&#x2039;" horiz-adv-x="589" d="M74 461l256 461h119l-218 -461l218 -461h-119z" />
<glyph unicode="&#x203a;" horiz-adv-x="589" d="M100 0l215 461l-215 461h119l254 -461l-254 -461h-119z" />
<glyph unicode="&#x205f;" horiz-adv-x="450" />
<glyph unicode="&#x20ac;" horiz-adv-x="1230" d="M123 522v78h151q-4 78 -4 117t4 117h-151v77h158q15 121 49.5 216.5t91.5 169.5t143 113.5t197 39.5q119 0 218 -64t148 -172l-16 -45q-51 97 -145.5 154t-204.5 57q-73 0 -128.5 -23.5t-91.5 -64t-60.5 -101.5t-36.5 -128t-17 -152h588l-31 -77h-561l-2 -117l2 -117h473 l-29 -78h-440q5 -85 17 -151.5t36.5 -128t60.5 -101.5t91.5 -64t128.5 -24q188 0 334 117v-70q-147 -116 -334 -116q-111 0 -197 39.5t-143 113.5t-91.5 169.5t-49.5 215.5h-158z" />
<glyph unicode="&#x2122;" horiz-adv-x="1808" d="M123 1321v41h649v-41h-289v-819h-73v819h-287zM772 502l43 860h59l355 -762l354 762h59l44 -860h-74l-37 741l-346 -741h-35l-344 735l-37 -735h-41z" />
<glyph unicode="&#x25fc;" horiz-adv-x="920" d="M0 0v920h920v-920h-920z" />
</font>
</defs>
</svg>
